<svg version="1.1" id="Layer_1" xmlns="http://www.w3.org/2000/svg" xmlns:xlink="http://www.w3.org/1999/xlink" x="0px" y="0px"
	 width="100%" viewBox="0 0 442 909" enable-background="new 0 0 442 909" xml:space="preserve">
<path fill="#FFFFFF" opacity="1.000000" stroke="none" 
	d="
M126.000000,910.000000 
	C84.000015,910.000000 42.500031,910.000000 1.000033,910.000000 
	C1.000022,607.000122 1.000022,304.000244 1.000011,1.000277 
	C148.333160,1.000185 295.666321,1.000185 442.999634,1.000092 
	C442.999756,303.999725 442.999756,606.999451 442.999878,909.999573 
	C337.500000,910.000000 232.000000,910.000000 126.000000,910.000000 
M297.803009,271.325012 
	C297.570709,255.363602 297.278748,239.402802 297.118073,223.440674 
	C296.746307,186.502121 296.423248,149.563049 296.115021,112.623901 
	C296.041656,103.834122 296.104095,95.043221 296.104095,87.457123 
	C290.720978,93.850380 285.527344,100.963898 279.368073,107.109680 
	C270.378632,116.079468 266.144562,125.918106 266.624756,139.086197 
	C267.794617,171.166946 267.591003,203.298126 267.879669,235.409561 
	C267.893463,236.947891 267.323486,238.491486 266.659241,239.465973 
	C241.468887,207.465149 225.319916,172.438782 230.563980,130.118713 
	C223.283051,143.077911 215.505264,155.483414 210.512711,168.923523 
	C203.596512,187.542130 205.343719,206.954224 210.543137,225.902191 
	C218.672729,255.528488 235.181870,280.348724 256.214050,302.170685 
	C269.712128,316.175659 284.253052,329.175507 297.935425,343.068756 
	C297.807831,343.218811 297.680267,343.368835 296.755402,343.492004 
	C269.087463,337.576050 242.297714,328.861877 215.976440,317.629150 
	C208.509094,332.172668 201.263199,346.350952 193.943100,360.490814 
	C192.302429,363.660034 192.914902,365.839508 195.648163,368.249207 
	C202.514832,374.302979 209.070648,380.709381 215.751526,386.973938 
	C227.599213,398.083344 239.447250,409.192444 251.950302,420.915985 
	C249.562683,420.915985 248.120895,421.008820 246.694244,420.901093 
	C236.240494,420.111755 225.796234,419.168152 215.331863,418.576019 
	C213.559891,418.475769 210.691360,419.319000 210.044083,420.595642 
	C202.546371,435.383423 195.378723,450.338531 188.014435,465.473419 
	C250.047165,512.092957 308.386780,561.867126 363.049194,615.871521 
	C362.842010,616.391785 362.634827,616.912048 362.427673,617.432312 
	C350.916229,616.757568 339.404785,616.082764 329.675751,615.512512 
	C328.525635,610.633423 328.464813,606.689575 326.756042,603.682129 
	C303.105927,562.057617 270.093750,529.898438 227.521179,508.019043 
	C214.748795,501.454895 201.169510,496.174896 187.494110,491.744171 
	C176.564484,488.203003 168.889465,492.035706 164.339859,501.101532 
	C157.256622,515.216003 150.426666,529.457947 143.530136,543.665588 
	C138.604599,553.812866 139.279602,563.952637 143.784180,574.029541 
	C148.978287,585.648987 157.734192,594.257812 167.787048,601.577332 
	C175.107193,606.907166 182.839203,611.671326 190.387589,616.687683 
	C177.948532,615.109924 165.703995,612.851318 153.610229,609.961731 
	C149.312347,608.934814 147.294449,609.909363 145.541702,613.776672 
	C139.163086,627.850647 132.533081,641.810547 126.024101,655.825745 
	C125.921684,656.046204 126.153419,656.421936 126.058052,656.040344 
	C135.520935,661.548462 144.815063,666.409302 153.540939,672.135986 
	C185.123199,692.863403 213.193573,717.954468 240.821228,743.530273 
	C252.172989,754.038940 262.997772,765.116882 273.929657,776.875183 
	C273.929657,800.451843 273.929657,824.028503 273.929657,847.980896 
	C276.477905,844.120605 278.459137,840.499512 281.030914,837.362488 
	C285.348083,832.096375 290.044281,827.141235 294.575287,822.050171 
	C299.258331,816.788452 303.539124,811.324402 303.630951,802.990356 
	C303.584961,793.029358 303.632599,783.066711 303.466675,773.107727 
	C303.300903,763.158325 302.921356,753.212524 302.816162,742.305725 
	C302.506653,715.682007 302.197144,689.058350 302.811249,662.344727 
	C309.760345,663.067688 316.694153,664.155334 323.661346,664.447754 
	C348.059662,665.471863 371.383850,661.222778 392.970856,649.299927 
	C394.483185,648.464600 396.069275,647.164124 396.838409,645.675537 
	C403.707916,632.380066 410.357880,618.971313 417.179657,605.650879 
	C418.744781,602.594727 418.636108,600.405396 416.026031,597.734985 
	C375.707764,556.484314 333.742798,517.010742 289.562775,479.908630 
	C285.470154,476.471649 281.451447,472.946716 276.588593,468.766479 
	C284.780640,468.179749 291.751770,467.841675 298.673431,467.063507 
	C300.266663,466.884399 302.354218,465.544250 303.088470,464.146851 
	C310.046753,450.903900 316.732147,437.517822 323.570007,424.210999 
	C325.050720,421.329559 324.946655,419.320831 322.251343,416.914673 
	C315.191803,410.612640 308.505463,403.892548 301.924805,397.075043 
	C301.924805,397.075043 302.178925,396.810669 303.034729,396.659729 
	C319.423981,398.067993 335.832489,399.291443 352.190430,400.999634 
	C356.959198,401.497650 359.074463,399.557709 360.877563,395.673340 
	C366.889618,382.721558 373.016327,369.820404 379.322052,357.009613 
	C380.725128,354.159058 379.935089,352.400696 378.042267,350.425568 
	C366.426331,338.304535 355.227997,325.754486 343.165649,314.097382 
	C328.344879,299.774536 312.813995,286.186523 297.803009,271.325012 
M113.932663,367.443970 
	C112.801689,365.183960 111.670715,362.923950 110.074196,359.733673 
	C102.179703,375.473175 94.748482,390.100433 87.589798,404.859863 
	C86.891121,406.300354 87.277969,408.921051 88.171021,410.372406 
	C93.468468,418.981750 98.742500,427.643829 104.718239,435.778473 
	C107.090355,439.007568 107.555801,441.164215 105.567169,444.488068 
	C103.184158,448.471069 101.528099,452.892914 99.102783,456.845917 
	C93.838867,465.425476 94.109009,474.355621 97.659767,483.155792 
	C100.245491,489.564209 103.452324,495.857452 107.299248,501.586304 
	C111.815926,508.312622 117.945923,513.617310 125.512794,517.304382 
	C133.564911,501.409851 141.406616,485.930664 148.998627,470.944336 
	C143.021469,465.916534 137.845932,461.563049 132.664154,457.204285 
	C134.219620,454.153198 135.396866,451.793152 136.618561,449.456360 
	C142.314148,438.562012 148.041306,427.684143 153.710724,416.776215 
	C154.985733,414.323090 155.796539,412.191162 152.554504,410.065155 
	C136.236465,399.364197 123.728035,385.099426 113.932663,367.443970 
M428.771210,452.308533 
	C430.205383,449.244629 431.639557,446.180725 433.246429,442.747833 
	C417.020813,439.071899 401.306183,435.615967 385.659180,431.877014 
	C382.608521,431.148010 381.114197,431.821289 379.841339,434.547729 
	C372.983734,449.236572 366.014404,463.873230 358.955963,478.797791 
	C375.287079,482.542267 391.316071,486.161194 407.308960,489.933472 
	C410.374176,490.656464 411.454956,489.024597 412.509186,486.765137 
	C417.773529,475.482239 423.081268,464.219543 428.771210,452.308533 
z"/>
<path fill="#492E87" opacity="1.000000" stroke="none" 
	d="
M302.635559,743.265137 
	C302.921356,753.212524 303.300903,763.158325 303.466675,773.107727 
	C303.632599,783.066711 303.584961,793.029358 303.309113,803.414734 
	C301.853943,802.942871 300.627106,802.141785 299.601990,801.135315 
	C291.067749,792.756897 282.570618,784.340637 274.062286,775.935852 
	C262.997772,765.116882 252.172989,754.038940 240.821228,743.530273 
	C213.193573,717.954468 185.123199,692.863403 153.540939,672.135986 
	C144.815063,666.409302 135.520935,661.548462 126.058052,656.040344 
	C126.153419,656.421936 125.921684,656.046204 126.024101,655.825745 
	C132.533081,641.810547 139.163086,627.850647 145.541702,613.776672 
	C147.294449,609.909363 149.312347,608.934814 153.610229,609.961731 
	C165.703995,612.851318 177.948532,615.109924 190.387589,616.687683 
	C182.839203,611.671326 175.107193,606.907166 167.787048,601.577332 
	C157.734192,594.257812 148.978287,585.648987 143.784180,574.029541 
	C139.279602,563.952637 138.604599,553.812866 143.530136,543.665588 
	C150.426666,529.457947 157.256622,515.216003 164.339859,501.101532 
	C168.889465,492.035706 176.564484,488.203003 187.494110,491.744171 
	C201.169510,496.174896 214.748795,501.454895 227.521179,508.019043 
	C270.093750,529.898438 303.105927,562.057617 326.756042,603.682129 
	C328.464813,606.689575 328.525635,610.633423 329.675751,615.512512 
	C339.404785,616.082764 350.916229,616.757568 362.427673,617.432312 
	C362.634827,616.912048 362.842010,616.391785 363.049194,615.871521 
	C308.386780,561.867126 250.047165,512.092957 188.014435,465.473419 
	C195.378723,450.338531 202.546371,435.383423 210.044083,420.595642 
	C210.691360,419.319000 213.559891,418.475769 215.331863,418.576019 
	C225.796234,419.168152 236.240494,420.111755 246.694244,420.901093 
	C248.120895,421.008820 249.562683,420.915985 251.950302,420.915985 
	C239.447250,409.192444 227.599213,398.083344 215.751526,386.973938 
	C209.070648,380.709381 202.514832,374.302979 195.648163,368.249207 
	C192.914902,365.839508 192.302429,363.660034 193.943100,360.490814 
	C201.263199,346.350952 208.509094,332.172668 215.976440,317.629150 
	C242.297714,328.861877 269.087463,337.576050 297.369446,343.655457 
	C298.405029,343.782806 298.826599,343.746674 299.248169,343.710571 
	C298.940948,343.349030 298.633728,342.987457 298.326538,342.625885 
	C284.253052,329.175507 269.712128,316.175659 256.214050,302.170685 
	C235.181870,280.348724 218.672729,255.528488 210.543137,225.902191 
	C205.343719,206.954224 203.596512,187.542130 210.512711,168.923523 
	C215.505264,155.483414 223.283051,143.077911 230.563980,130.118713 
	C225.319916,172.438782 241.468887,207.465149 266.926453,240.070831 
	C268.846741,242.544556 270.427673,244.483551 272.165100,246.270416 
	C280.617096,254.962906 289.110992,263.614685 297.590057,272.280853 
	C312.813995,286.186523 328.344879,299.774536 343.165649,314.097382 
	C355.227997,325.754486 366.426331,338.304535 378.042267,350.425568 
	C379.935089,352.400696 380.725128,354.159058 379.322052,357.009613 
	C373.016327,369.820404 366.889618,382.721558 360.877563,395.673340 
	C359.074463,399.557709 356.959198,401.497650 352.190430,400.999634 
	C335.832489,399.291443 319.423981,398.067993 302.483795,396.526520 
	C301.654694,396.464996 301.376526,396.536713 301.098358,396.608398 
	C301.289032,396.851959 301.479706,397.095551 301.670380,397.339111 
	C308.505463,403.892548 315.191803,410.612640 322.251343,416.914673 
	C324.946655,419.320831 325.050720,421.329559 323.570007,424.210999 
	C316.732147,437.517822 310.046753,450.903900 303.088470,464.146851 
	C302.354218,465.544250 300.266663,466.884399 298.673431,467.063507 
	C291.751770,467.841675 284.780640,468.179749 276.588593,468.766479 
	C281.451447,472.946716 285.470154,476.471649 289.562775,479.908630 
	C333.742798,517.010742 375.707764,556.484314 416.026031,597.734985 
	C418.636108,600.405396 418.744781,602.594727 417.179657,605.650879 
	C410.357880,618.971313 403.707916,632.380066 396.838409,645.675537 
	C396.069275,647.164124 394.483185,648.464600 392.970856,649.299927 
	C371.383850,661.222778 348.059662,665.471863 323.661346,664.447754 
	C316.694153,664.155334 309.760345,663.067688 302.035400,662.238037 
	C291.581329,658.842712 282.232178,660.696167 272.535095,663.849609 
	C257.360718,665.336304 242.623352,666.914917 230.171326,668.248657 
	C243.197205,682.011597 257.114288,696.723083 271.051208,711.415710 
	C271.598511,711.992676 272.336182,712.389099 273.102753,713.189148 
	C283.025391,723.427490 292.830475,733.346313 302.635559,743.265137 
z"/>
<path fill="#4A2F87" opacity="1.000000" stroke="none" 
	d="
M114.089569,367.778076 
	C123.728035,385.099426 136.236465,399.364197 152.554504,410.065155 
	C155.796539,412.191162 154.985733,414.323090 153.710724,416.776215 
	C148.041306,427.684143 142.314148,438.562012 136.618561,449.456360 
	C135.396866,451.793152 134.219620,454.153198 132.664154,457.204285 
	C137.845932,461.563049 143.021469,465.916534 148.998627,470.944336 
	C141.406616,485.930664 133.564911,501.409851 125.512794,517.304382 
	C117.945923,513.617310 111.815926,508.312622 107.299248,501.586304 
	C103.452324,495.857452 100.245491,489.564209 97.659767,483.155792 
	C94.109009,474.355621 93.838867,465.425476 99.102783,456.845917 
	C101.528099,452.892914 103.184158,448.471069 105.567169,444.488068 
	C107.555801,441.164215 107.090355,439.007568 104.718239,435.778473 
	C98.742500,427.643829 93.468468,418.981750 88.171021,410.372406 
	C87.277969,408.921051 86.891121,406.300354 87.589798,404.859863 
	C94.748482,390.100433 102.179703,375.473175 110.074196,359.733673 
	C111.670715,362.923950 112.801689,365.183960 114.089569,367.778076 
z"/>
<path fill="#A5A4A9" opacity="1.000000" stroke="none" 
	d="
M297.696533,271.802917 
	C289.110992,263.614685 280.617096,254.962906 272.165100,246.270416 
	C270.427673,244.483551 268.846741,242.544556 267.109558,240.354156 
	C267.323486,238.491486 267.893463,236.947891 267.879669,235.409561 
	C267.591003,203.298126 267.794617,171.166946 266.624756,139.086197 
	C266.144562,125.918106 270.378632,116.079468 279.368073,107.109680 
	C285.527344,100.963898 290.720978,93.850380 296.104095,87.457123 
	C296.104095,95.043221 296.041656,103.834122 296.115021,112.623901 
	C296.423248,149.563049 296.746307,186.502121 297.118073,223.440674 
	C297.278748,239.402802 297.570709,255.363602 297.696533,271.802917 
z"/>
<path fill="#4A2F87" opacity="1.000000" stroke="none" 
	d="
M428.572479,452.629150 
	C423.081268,464.219543 417.773529,475.482239 412.509186,486.765137 
	C411.454956,489.024597 410.374176,490.656464 407.308960,489.933472 
	C391.316071,486.161194 375.287079,482.542267 358.955963,478.797791 
	C366.014404,463.873230 372.983734,449.236572 379.841339,434.547729 
	C381.114197,431.821289 382.608521,431.148010 385.659180,431.877014 
	C401.306183,435.615967 417.020813,439.071899 433.246429,442.747833 
	C431.639557,446.180725 430.205383,449.244629 428.572479,452.629150 
z"/>
<path fill="#A5A4A9" opacity="1.000000" stroke="none" 
	d="
M302.725861,742.785400 
	C292.830475,733.346313 283.025391,723.427490 273.091400,712.729492 
	C272.965668,695.947449 272.968903,679.944458 272.972107,663.941528 
	C282.232178,660.696167 291.581329,658.842712 301.573578,662.283020 
	C302.197144,689.058350 302.506653,715.682007 302.725861,742.785400 
z"/>
<path fill="#A5A4A9" opacity="1.000000" stroke="none" 
	d="
M273.995972,776.405518 
	C282.570618,784.340637 291.067749,792.756897 299.601990,801.135315 
	C300.627106,802.141785 301.853943,802.942871 303.312683,803.812866 
	C303.539124,811.324402 299.258331,816.788452 294.575287,822.050171 
	C290.044281,827.141235 285.348083,832.096375 281.030914,837.362488 
	C278.459137,840.499512 276.477905,844.120605 273.929657,847.980896 
	C273.929657,824.028503 273.929657,800.451843 273.995972,776.405518 
z"/>
<path fill="#FDFCFD" opacity="1.000000" stroke="none" 
	d="
M272.535095,663.849609 
	C272.968903,679.944458 272.965668,695.947449 272.973816,712.410034 
	C272.336182,712.389099 271.598511,711.992676 271.051208,711.415710 
	C257.114288,696.723083 243.197205,682.011597 230.171326,668.248657 
	C242.623352,666.914917 257.360718,665.336304 272.535095,663.849609 
z"/>
<path fill="#FFFFFF" opacity="1.000000" stroke="none" 
	d="
M298.130981,342.847321 
	C298.633728,342.987457 298.940948,343.349030 299.248169,343.710571 
	C298.826599,343.746674 298.405029,343.782806 297.768066,343.668915 
	C297.680267,343.368835 297.807831,343.218811 298.130981,342.847321 
z"/>
<path fill="#FFFFFF" opacity="1.000000" stroke="none" 
	d="
M301.797607,397.207092 
	C301.479706,397.095551 301.289032,396.851959 301.098358,396.608398 
	C301.376526,396.536713 301.654694,396.464996 302.055908,396.601990 
	C302.178925,396.810669 301.924805,397.075043 301.797607,397.207092 
z"/>
</svg>